PathFileType	4	(X/Y/Z)	E:\Studenten\Marcel_BSc\Hannes_22_01_2025\22-01-2025\static_01.trc
DataRate	CameraRate	NumFrames	NumMarkers	Units	OrigDataRate	OrigDataStartFrame	OrigNumFrames
200.0	200.0	4	59	mm	200.0	373	497	
Frame#	Time	FHD			LBHD			RBHD			RBAR			LBAR			RASI			RSACR			LSACR			LASI			USACR			C7			CLAV			T10			RSHO			LSHO			LTHI1			LTHI3			LTHI2			LLFC			LMFC			LTIB1			LTIB2			LTIB3			LMMAL			LLMAL			LHEE			LMT1			LMT5			LMT3			RTHI1			RTHI2			RTHI3			RLFC			RMFC			RTIB1			RTIB3			RTIB2			RLMAL			RMMAL			RHEE			RMT5			RMT1			RMT3			LMEP			LLEP			LDUPA			LMUPA			LUUPA			LUL			LRAD			LRFIN			RUL			RRAD			RUFIN			RMEP			RLEP			RMUPA			RDUPA			RUUPA			
		X1	Y1	Z1	X2	Y2	Z2	X3	Y3	Z3	X4	Y4	Z4	X5	Y5	Z5	X6	Y6	Z6	X7	Y7	Z7	X8	Y8	Z8	X9	Y9	Z9	X10	Y10	Z10	X11	Y11	Z11	X12	Y12	Z12	X13	Y13	Z13	X14	Y14	Z14	X15	Y15	Z15	X16	Y16	Z16	X17	Y17	Z17	X18	Y18	Z18	X19	Y19	Z19	X20	Y20	Z20	X21	Y21	Z21	X22	Y22	Z22	X23	Y23	Z23	X24	Y24	Z24	X25	Y25	Z25	X26	Y26	Z26	X27	Y27	Z27	X28	Y28	Z28	X29	Y29	Z29	X30	Y30	Z30	X31	Y31	Z31	X32	Y32	Z32	X33	Y33	Z33	X34	Y34	Z34	X35	Y35	Z35	X36	Y36	Z36	X37	Y37	Z37	X38	Y38	Z38	X39	Y39	Z39	X40	Y40	Z40	X41	Y41	Z41	X42	Y42	Z42	X43	Y43	Z43	X44	Y44	Z44	X45	Y45	Z45	X46	Y46	Z46	X47	Y47	Z47	X48	Y48	Z48	X49	Y49	Z49	X50	Y50	Z50	X51	Y51	Z51	X52	Y52	Z52	X53	Y53	Z53	X54	Y54	Z54	X55	Y55	Z55	X56	Y56	Z56	X57	Y57	Z57	X58	Y58	Z58	X59	Y59	Z59	
373	1.86	63.252464	1708.4994	-1224.0282	147.58534	1680.4857	-1122.837	159.9485	1675.1365	-1317.0588	-530.18604	25.840824	-2111.5134	-499.41486	36.262959	112.26599	110.39821	988.08722	-1330.0618	302.85733	1050.3075	-1256.2517	303.56863	1055.4493	-1148.8397	116.62607	995.09937	-1061.1254	304.11658	1074.5984	-1201.8212	293.93082	1171.0594	-1202.4778	122.2479	1449.9581	-1208.9384	292.64926	1493.5989	-1208.9552	272.10391	1484.6523	-1368.4681	270.58472	1492.6514	-1048.3531	212.66582	791.92395	-982.97015	183.80428	732.02344	-973.46912	233.84383	728.9892	-982.32507	223.1852	504.24283	-998.71649	206.54398	464.92136	-1106.6199	319.56519	278.05945	-966.7066	269.16141	267.9046	-961.74213	305.99411	214.15302	-968.4176	277.47858	86.268631	-1054.3899	309.65118	80.166283	-966.03967	354.48352	22.063818	-1015.3146	142.82959	39.997879	-996.74451	185.70189	26.594267	-915.66547	149.06937	30.098541	-948.57178	222.48631	782.09332	-1410.3864	190.65254	724.32562	-1417.6544	239.95705	718.22467	-1408.8668	218.09486	494.64682	-1384.2242	196.00964	477.39441	-1277.6389	294.85562	274.32727	-1422.9095	244.60155	277.30243	-1413.7004	268.5358	215.69873	-1414.0594	295.13083	79.98201	-1409.9247	257.53314	83.35627	-1322.7201	343.89828	30.222179	-1366.3099	184.10938	27.38096	-1460.9521	124.54614	36.014194	-1389.7017	135.75572	28.371754	-1438.1532	214.59422	1358.7463	-771.21222	277.23566	1449.344	-763.96564	286.11807	1442.694	-830.81439	251.62006	1484.3372	-889.53381	289.07373	1451.3849	-892.04742	196.78418	1482.5067	-521.83191	154.62866	1503.1317	-536.36719	112.20473	1493.7343	-435.89371	212.95224	1465.9537	-1903.6029	169.22168	1489.8948	-1885.2355	152.24727	1484.359	-1997.9567	229.36955	1350.8694	-1639.9105	293.35504	1439.9235	-1655.4961	308.45889	1426.3331	-1550.2867	287.73428	1451.0667	-1587.8783	288.24542	1471.4093	-1511.1993
374	1.865	63.279526	1708.4855	-1224.0476	147.59795	1680.4813	-1122.8462	159.95985	1675.1368	-1317.0626	-530.27625	25.80262	-2111.2795	-499.42789	36.261093	112.27202	110.38946	988.08917	-1330.0558	302.85382	1050.3046	-1256.2531	303.56433	1055.4586	-1148.8394	116.63633	995.09668	-1061.1218	304.10297	1074.6018	-1201.8147	293.91052	1171.0542	-1202.4739	122.24606	1449.937	-1208.9663	292.64972	1493.5977	-1208.9683	272.10239	1484.6458	-1368.4884	270.57602	1492.6471	-1048.3528	212.66313	791.90771	-982.97772	183.79781	732.01764	-973.46838	233.83412	728.97742	-982.33264	223.1916	504.25601	-998.70825	206.55183	464.91864	-1106.6316	319.56589	278.03854	-966.7182	269.2236	267.88293	-961.73645	305.99704	214.1532	-968.42023	277.4736	86.272972	-1054.3849	309.65814	80.16954	-966.0332	354.47232	22.065134	-1015.3098	142.82204	39.996029	-996.73047	185.70427	26.598356	-915.65875	149.07553	30.074659	-948.57599	222.5006	782.09052	-1410.3899	190.66159	724.3241	-1417.6534	239.95047	718.22406	-1408.8711	218.09663	494.6554	-1384.2295	196.00209	477.39047	-1277.6344	294.87	274.33069	-1422.9226	244.71638	277.33167	-1414.094	268.54605	215.68343	-1414.0691	295.12274	79.977127	-1409.9135	257.53159	83.357399	-1322.7135	343.88278	30.201317	-1366.3571	184.08037	27.29595	-1460.8906	124.53857	36.019035	-1389.7025	135.75839	28.358614	-1438.1498	214.55991	1358.7709	-771.22369	277.26172	1449.4808	-764.03168	286.12366	1442.8436	-830.8775	251.58781	1484.3563	-889.54419	289.05014	1451.4005	-892.04504	196.72696	1482.54	-521.84253	154.55469	1503.1696	-536.3786	112.14614	1493.7648	-435.91718	212.90253	1465.9592	-1903.5614	169.17601	1489.8623	-1885.2555	152.21526	1484.3132	-1997.9852	229.84419	1350.6223	-1640.2693	293.3501	1439.9404	-1655.5049	308.46713	1426.3365	-1550.3021	287.72775	1451.0918	-1587.8877	288.25095	1471.4009	-1511.1987
375	1.87	63.271366	1708.5017	-1224.0347	147.61533	1680.4869	-1122.8572	159.95253	1675.1432	-1317.0773	-530.26654	25.78717	-2111.4062	-499.42499	36.266331	112.26883	110.39185	988.07971	-1330.046	302.85095	1050.306	-1256.2429	303.55826	1055.4619	-1148.8296	116.64859	995.08289	-1061.1105	304.10373	1074.5879	-1201.8124	293.88959	1171.0504	-1202.4683	122.23965	1449.925	-1208.9877	292.64023	1493.5952	-1208.9877	272.09692	1484.6338	-1368.4946	270.55939	1492.6453	-1048.3729	212.66402	791.8938	-982.97247	183.80629	732.01495	-973.4577	233.86571	728.97278	-982.31989	223.21524	504.22723	-998.70624	206.56686	464.91705	-1106.6429	319.57877	278.04883	-966.69574	269.18729	267.89163	-961.70624	305.99106	214.16371	-968.39612	277.47589	86.274094	-1054.3936	309.64111	80.169197	-966.02679	354.49298	22.048594	-1015.3079	142.82481	39.996895	-996.73547	185.70172	26.590586	-915.66089	149.07161	30.077057	-948.56799	222.50565	782.09125	-1410.3851	190.67311	724.32581	-1417.6455	240.06784	717.88177	-1408.9929	218.10077	494.65829	-1384.2283	196.01228	477.4007	-1277.6158	294.86542	274.32629	-1422.9197	244.72003	277.31561	-1414.1073	268.53821	215.70218	-1414.0533	295.13388	79.965607	-1409.9252	257.52158	83.35511	-1322.7145	343.88232	30.22204	-1366.3457	184.07794	27.288191	-1460.8962	124.54774	36.006596	-1389.7073	135.75494	28.364973	-1438.1561	214.53127	1358.7972	-771.23096	277.22583	1449.4985	-764.0387	286.07751	1442.8682	-830.87659	251.54146	1484.3711	-889.55725	289.02069	1451.4103	-892.05835	196.6543	1482.5587	-521.86194	154.48666	1503.1967	-536.4043	112.06523	1493.7896	-435.93152	212.86734	1465.9657	-1903.5264	169.15485	1489.8341	-1885.2617	152.18633	1484.2706	-1997.9893	229.87115	1350.6223	-1640.2743	293.34399	1439.949	-1655.5122	308.46442	1426.3552	-1550.3147	287.70807	1451.1333	-1587.8822	288.23746	1471.4054	-1511.1976
376	1.875	63.267849	1708.511	-1224.036	147.60652	1680.4845	-1122.8723	159.95872	1675.1368	-1317.0896	-530.21167	25.857435	-2111.4919	-499.41617	36.272125	112.26865	110.39983	988.06873	-1330.037	302.85233	1050.3064	-1256.2397	303.55002	1055.46	-1148.8168	116.63498	995.06641	-1061.1118	304.09711	1074.5897	-1201.8062	293.88348	1171.0586	-1202.4598	122.22977	1449.9015	-1209.009	292.62927	1493.5991	-1208.9872	272.11359	1484.6334	-1368.4987	270.53574	1492.6451	-1048.3921	212.65871	791.91272	-982.95667	183.80107	732.01556	-973.46527	233.84843	728.96954	-982.30963	223.21622	504.23688	-998.70007	206.58406	464.91751	-1106.6338	319.80301	278.30994	-966.35449	269.22162	267.85504	-961.73187	306.00153	214.17896	-968.40466	277.47025	86.283257	-1054.3868	309.64203	80.17775	-966.0174	354.4697	22.055019	-1015.2913	142.82106	40.002136	-996.73236	185.69469	26.589722	-915.66608	149.0705	30.087923	-948.56519	222.5009	782.0896	-1410.3828	190.67978	724.31158	-1417.6412	240.06483	717.89111	-1408.9885	218.11272	494.65546	-1384.2335	196.01059	477.39764	-1277.6115	294.85513	274.32892	-1422.9142	244.72333	277.33301	-1414.0907	268.53812	215.69562	-1414.0652	295.13486	79.978241	-1409.9229	257.51462	83.342392	-1322.7034	343.88019	30.208397	-1366.3167	184.11356	27.36371	-1460.9514	124.54517	35.999866	-1389.7103	135.75005	28.368036	-1438.1429	214.49532	1358.8082	-771.26062	277.18176	1449.5298	-764.04761	286.03772	1442.9086	-830.88843	251.51765	1484.3943	-889.57794	288.97977	1451.4185	-892.08466	196.59537	1482.5957	-521.87506	154.42645	1503.2314	-536.42474	112.00987	1493.8203	-435.94901	212.82889	1465.9659	-1903.5226	169.11029	1489.8114	-1885.2587	152.14508	1484.2319	-1998.0081	229.87819	1350.6151	-1640.2855	293.32922	1439.9611	-1655.5289	308.45602	1426.3767	-1550.3258	287.67285	1451.1456	-1587.8988	288.22198	1471.4236	-1511.197
